<?xml version="1.0" encoding="UTF-8"?>
<svg version="1.1" xmlns="http://www.w3.org/2000/svg" width="128" height="128">
<path d="M0 0 C1.02511688 -0.00525696 2.05023376 -0.01051392 3.10641479 -0.01593018 C6.48646392 -0.02910671 9.86604003 -0.02040011 13.24609375 -0.01025391 C15.59969167 -0.01227531 17.95328898 -0.0151873 20.30688477 -0.01895142 C25.23622611 -0.0233716 30.16540421 -0.01695335 35.09472656 -0.00292969 C41.40982558 0.01416179 47.72454208 0.00431901 54.03962708 -0.01364708 C58.89867021 -0.02449302 63.75762282 -0.0210348 68.6166687 -0.0132637 C70.94505865 -0.01126395 73.27345684 -0.01371306 75.60183716 -0.02070236 C78.8571751 -0.02832993 82.11189549 -0.01669364 85.3671875 0 C86.32736786 -0.00607269 87.28754822 -0.01214539 88.27682495 -0.0184021 C93.47653924 0.03093941 97.22629603 0.39911992 101.68359375 3.38818359 C104.25836362 7.2503384 103.96440984 10.43372795 103.94238281 14.91113281 C103.94588745 15.78136078 103.94939209 16.65158875 103.95300293 17.54818726 C103.96181742 20.42982929 103.95597105 23.31122648 103.94921875 26.19287109 C103.95056573 28.19442797 103.95250653 30.19598453 103.95501709 32.19754028 C103.95796817 36.39572256 103.95367209 40.59381979 103.94433594 44.79199219 C103.93295615 50.17117543 103.93949166 55.55015878 103.95148087 60.92933464 C103.95871242 65.06431582 103.95640531 69.19924972 103.95122528 73.33423233 C103.94989161 75.31735381 103.95152662 77.30047958 103.95618439 79.28359604 C103.96126921 82.05799448 103.95351114 84.83207082 103.94238281 87.60644531 C103.94643127 88.42532227 103.95047974 89.24419922 103.95465088 90.08789062 C103.94901123 90.84770233 103.94337158 91.60751404 103.93756104 92.39035034 C103.93680698 93.04553587 103.93605293 93.7007214 103.93527603 94.37576103 C103.68359375 96.38818359 103.68359375 96.38818359 101.68359375 101.38818359 C62.74359375 101.38818359 23.80359375 101.38818359 -16.31640625 101.38818359 C-18.28589569 96.46445999 -18.60102093 92.86815227 -18.57519531 87.71411133 C-18.57869995 86.85173859 -18.58220459 85.98936584 -18.58581543 85.1008606 C-18.59459929 82.25775034 -18.58879591 79.41489002 -18.58203125 76.57177734 C-18.58337874 74.59310356 -18.58531997 72.6144301 -18.58782959 70.63575745 C-18.59077621 66.49240969 -18.58649755 62.34914826 -18.57714844 58.20581055 C-18.56574675 52.89384572 -18.57232086 47.58208283 -18.58429337 42.27012539 C-18.59151803 38.18580095 -18.58922136 34.10152444 -18.58403778 30.01719856 C-18.58270335 28.05837035 -18.58434177 26.09953778 -18.58899689 24.14071465 C-18.59407285 21.40464609 -18.5863371 18.66890545 -18.57519531 15.93286133 C-18.57924377 15.12288193 -18.58329224 14.31290253 -18.58746338 13.4783783 C-18.53164584 6.08374997 -18.53164584 6.08374997 -16.31640625 3.38818359 C-11.10688566 -0.23659714 -6.10156444 -0.03858955 0 0 Z " fill="#F3F9EB" transform="translate(21.31640625,13.61181640625)"/>
<path d="M0 0 C1.03755432 0.00707474 2.07510864 0.01414948 3.144104 0.0214386 C6.45617948 0.04941484 9.76656099 0.11216196 13.078125 0.17578125 C15.32419433 0.20085982 17.57029017 0.22367376 19.81640625 0.24414062 C25.32148917 0.29500059 30.8229126 0.39285191 36.328125 0.48828125 C36.328125 7.74828125 36.328125 15.00828125 36.328125 22.48828125 C33.358125 23.80828125 30.388125 25.12828125 27.328125 26.48828125 C24.85603704 28.84660897 24.85603704 28.84660897 23.328125 31.48828125 C22.709375 32.38546875 22.709375 32.38546875 22.078125 33.30078125 C20.32157258 38.42405913 20.79553505 42.92059618 23.015625 47.73828125 C26.60576165 54.14027318 30.16621686 55.44202178 37.328125 57.48828125 C37.328125 66.06828125 37.328125 74.64828125 37.328125 83.48828125 C30.72458768 83.62612084 24.12604729 83.74552942 17.5222168 83.81787109 C15.27660199 83.84802663 13.03110479 83.88895823 10.78588867 83.94091797 C7.55618271 84.01378459 4.32803475 84.0477504 1.09765625 84.07421875 C0.09539505 84.10518646 -0.90686615 84.13615417 -1.9394989 84.1680603 C-8.68982263 84.17131265 -8.68982263 84.17131265 -11.4322052 82.26394653 C-13.92572917 79.47999269 -15.30379647 76.91823939 -15.16015625 73.18359375 C-15.14142456 72.17063232 -15.14142456 72.17063232 -15.12231445 71.13720703 C-15.07679443 70.30431152 -15.03127441 69.47141602 -14.984375 68.61328125 C-14.88125 65.93203125 -14.778125 63.25078125 -14.671875 60.48828125 C-6.256875 59.99328125 -6.256875 59.99328125 2.328125 59.48828125 C3.88789564 56.36873997 3.44916626 53.05868741 3.42578125 49.63671875 C3.42365883 48.47567123 3.42365883 48.47567123 3.42149353 47.29116821 C3.41588903 44.81516683 3.40333583 42.33925537 3.390625 39.86328125 C3.38561058 38.18619922 3.38104757 36.50911578 3.37695312 34.83203125 C3.36676836 30.71738528 3.34719394 26.6029341 3.328125 22.48828125 C-2.611875 22.15828125 -8.551875 21.82828125 -14.671875 21.48828125 C-14.754375 18.95140625 -14.836875 16.41453125 -14.921875 13.80078125 C-14.95829102 13.01098877 -14.99470703 12.22119629 -15.03222656 11.4074707 C-15.0422168 10.770271 -15.05220703 10.13307129 -15.0625 9.4765625 C-15.08344727 8.83243408 -15.10439453 8.18830566 -15.12597656 7.5246582 C-13.26150251 -0.83640526 -7.08930984 -0.18160182 0 0 Z " fill="#7EC72A" transform="translate(25.671875,23.51171875)"/>
<path d="M0 0 C6.62136185 -0.11477707 13.23927579 -0.21432175 19.86083984 -0.2746582 C22.11323743 -0.29980743 24.36555336 -0.33393118 26.61767578 -0.37719727 C29.854697 -0.437829 33.09063972 -0.46620592 36.328125 -0.48828125 C37.33554749 -0.51408768 38.34296997 -0.5398941 39.38092041 -0.56648254 C46.34055539 -0.56927665 46.34055539 -0.56927665 49.64257812 2.28125 C50.91637735 4.83251407 51.48164565 6.18939619 51.390625 8.98828125 C51.37773438 9.69404297 51.36484375 10.39980469 51.3515625 11.12695312 C51.31804687 11.84818359 51.28453125 12.56941406 51.25 13.3125 C51.23195312 14.05306641 51.21390625 14.79363281 51.1953125 15.55664062 C51.14847337 17.3716571 51.07673789 19.18600166 51 21 C49.17662109 21.09087891 49.17662109 21.09087891 47.31640625 21.18359375 C45.73175772 21.26798332 44.14712298 21.3526321 42.5625 21.4375 C41.35883789 21.49647461 41.35883789 21.49647461 40.13085938 21.55664062 C36.24760439 21.4054296 36.24760439 21.4054296 33 23 C32.89908525 25.58189446 32.86028501 28.136465 32.8671875 30.71875 C32.86623077 31.49182495 32.86527405 32.2648999 32.86428833 33.06140137 C32.86360659 34.69897544 32.86546043 36.33655219 32.86962891 37.97412109 C32.87497729 40.48931921 32.86968374 43.00433873 32.86328125 45.51953125 C32.86394203 47.10677123 32.8652232 48.6940111 32.8671875 50.28125 C32.86516327 51.03853394 32.86313904 51.79581787 32.86105347 52.5760498 C32.55546316 56.08015563 32.55546316 56.08015563 34 59 C36.85877909 59.23701239 39.69883297 59.42219182 42.5625 59.5625 C43.77196289 59.62727539 43.77196289 59.62727539 45.00585938 59.69335938 C47.00368805 59.79975262 49.0018207 59.90040888 51 60 C51.05404449 62.75026417 51.09369306 65.49946203 51.125 68.25 C51.14175781 69.02730469 51.15851563 69.80460937 51.17578125 70.60546875 C51.24029721 78.15383625 51.24029721 78.15383625 49 81 C46.03959653 82.79243376 43.85381837 83.24636977 40.41503906 83.22705078 C39.06409149 83.22682419 39.06409149 83.22682419 37.68585205 83.22659302 C36.72217712 83.21627045 35.7585022 83.20594788 34.765625 83.1953125 C33.27588165 83.19106766 33.27588165 83.19106766 31.75604248 83.18673706 C28.58723856 83.17555143 25.41871835 83.15044962 22.25 83.125 C20.1002645 83.11496812 17.95052457 83.10584263 15.80078125 83.09765625 C10.5336572 83.07731986 5.2671458 83.03816772 0 83 C0 74.42 0 65.84 0 57 C2.64 56.01 5.28 55.02 8 54 C13.35356806 49.69386917 14.68195302 45.81698757 15.4375 39.125 C15.25793784 34.18231535 13.4279115 30.5333857 10 27 C6.74108357 24.94514125 3.56533065 23.52120774 0 22 C0 14.74 0 7.48 0 0 Z " fill="#7EC729" transform="translate(66,24)"/>
<path d="M0 0 C1.02511688 -0.00525696 2.05023376 -0.01051392 3.10641479 -0.01593018 C6.48646392 -0.02910671 9.86604003 -0.02040011 13.24609375 -0.01025391 C15.59969167 -0.01227531 17.95328898 -0.0151873 20.30688477 -0.01895142 C25.23622611 -0.0233716 30.16540421 -0.01695335 35.09472656 -0.00292969 C41.40982558 0.01416179 47.72454208 0.00431901 54.03962708 -0.01364708 C58.89867021 -0.02449302 63.75762282 -0.0210348 68.6166687 -0.0132637 C70.94505865 -0.01126395 73.27345684 -0.01371306 75.60183716 -0.02070236 C78.8571751 -0.02832993 82.11189549 -0.01669364 85.3671875 0 C86.32736786 -0.00607269 87.28754822 -0.01214539 88.27682495 -0.0184021 C93.47653924 0.03093941 97.22629603 0.39911992 101.68359375 3.38818359 C104.25836362 7.2503384 103.96440984 10.43372795 103.94238281 14.91113281 C103.94588745 15.78136078 103.94939209 16.65158875 103.95300293 17.54818726 C103.96181742 20.42982929 103.95597105 23.31122648 103.94921875 26.19287109 C103.95056573 28.19442797 103.95250653 30.19598453 103.95501709 32.19754028 C103.95796817 36.39572256 103.95367209 40.59381979 103.94433594 44.79199219 C103.93295615 50.17117543 103.93949166 55.55015878 103.95148087 60.92933464 C103.95871242 65.06431582 103.95640531 69.19924972 103.95122528 73.33423233 C103.94989161 75.31735381 103.95152662 77.30047958 103.95618439 79.28359604 C103.96126921 82.05799448 103.95351114 84.83207082 103.94238281 87.60644531 C103.94643127 88.42532227 103.95047974 89.24419922 103.95465088 90.08789062 C103.94901123 90.84770233 103.94337158 91.60751404 103.93756104 92.39035034 C103.93680698 93.04553587 103.93605293 93.7007214 103.93527603 94.37576103 C103.68359375 96.38818359 103.68359375 96.38818359 101.68359375 101.38818359 C62.74359375 101.38818359 23.80359375 101.38818359 -16.31640625 101.38818359 C-18.28589569 96.46445999 -18.60102093 92.86815227 -18.57519531 87.71411133 C-18.57869995 86.85173859 -18.58220459 85.98936584 -18.58581543 85.1008606 C-18.59459929 82.25775034 -18.58879591 79.41489002 -18.58203125 76.57177734 C-18.58337874 74.59310356 -18.58531997 72.6144301 -18.58782959 70.63575745 C-18.59077621 66.49240969 -18.58649755 62.34914826 -18.57714844 58.20581055 C-18.56574675 52.89384572 -18.57232086 47.58208283 -18.58429337 42.27012539 C-18.59151803 38.18580095 -18.58922136 34.10152444 -18.58403778 30.01719856 C-18.58270335 28.05837035 -18.58434177 26.09953778 -18.58899689 24.14071465 C-18.59407285 21.40464609 -18.5863371 18.66890545 -18.57519531 15.93286133 C-18.57924377 15.12288193 -18.58329224 14.31290253 -18.58746338 13.4783783 C-18.53164584 6.08374997 -18.53164584 6.08374997 -16.31640625 3.38818359 C-11.10688566 -0.23659714 -6.10156444 -0.03858955 0 0 Z M-12.31640625 11.38818359 C-12.64640625 11.71818359 -12.97640625 12.04818359 -13.31640625 12.38818359 C-13.43261882 14.75955872 -13.4843843 17.10222508 -13.4934082 19.47485352 C-13.4999794 20.21638672 -13.5065506 20.95791992 -13.51332092 21.72192383 C-13.53310572 24.18750093 -13.54473016 26.65301687 -13.5546875 29.11865234 C-13.55876303 29.95975367 -13.56283855 30.80085499 -13.56703758 31.66744423 C-13.58792402 36.12228782 -13.6022125 40.5771004 -13.61157227 45.03198242 C-13.62262042 49.63105662 -13.65699421 54.22964478 -13.69674397 58.82854748 C-13.72291688 62.36565539 -13.73126486 65.9026479 -13.73485374 69.43984413 C-13.73972082 71.13469016 -13.75133834 72.82953099 -13.76989174 74.52428246 C-13.79429021 76.90142332 -13.793317 79.27731277 -13.78637695 81.65454102 C-13.79918701 82.35140518 -13.81199707 83.04826935 -13.82519531 83.76625061 C-13.77239547 88.74444529 -12.50230772 91.59825004 -9.31640625 95.38818359 C-6.54128887 97.08023128 -4.46304216 97.64005609 -1.23123169 97.65560913 C-0.4266452 97.6641391 0.37794128 97.67266907 1.20690918 97.68145752 C2.08077271 97.68055115 2.95463623 97.67964478 3.85498047 97.67871094 C4.78226959 97.68542816 5.70955872 97.69214539 6.66494751 97.69906616 C9.73111323 97.71806779 12.79706031 97.72197145 15.86328125 97.72412109 C17.99553518 97.73054746 20.12778822 97.7372757 22.26004028 97.74429321 C26.73050989 97.75627136 31.20090219 97.75997347 35.67138672 97.75878906 C41.39696806 97.75858583 47.12205326 97.78589002 52.84751701 97.82033348 C57.25190503 97.84258174 61.65617326 97.84662724 66.06061172 97.84556961 C68.17131383 97.84792861 70.2820191 97.85676892 72.39266586 97.87223434 C75.34660234 97.89185218 78.29946381 97.88607257 81.25341797 97.87402344 C82.12323303 97.88526245 82.9930481 97.89650146 83.88922119 97.90808105 C89.2745349 97.85232221 92.47568237 97.07172035 96.68359375 93.38818359 C99.28920581 89.96073215 98.97950016 86.08614289 98.97412109 81.94506836 C98.98083832 81.20149078 98.98755554 80.45791321 98.99447632 79.69180298 C99.01344954 77.23766368 99.01737996 74.78379789 99.01953125 72.32958984 C99.02595902 70.62092476 99.03268736 68.91226079 99.03970337 67.20359802 C99.05167397 63.62341764 99.05538435 60.04333375 99.05419922 56.46313477 C99.05399589 51.87858521 99.08131255 47.29465462 99.11574364 42.71025181 C99.13799381 39.18174911 99.14203736 35.65339591 99.14097977 32.12483025 C99.14333801 30.4347514 99.15217413 28.74466857 99.1676445 27.05465889 C99.18726972 24.68956384 99.18148144 22.32581061 99.16943359 19.96069336 C99.18067261 19.26494705 99.19191162 18.56920074 99.20349121 17.85237122 C99.15829262 14.35574718 98.72814532 12.45855224 96.84072876 9.47740173 C93.89483462 6.62425835 91.53787049 6.26474103 87.59805298 6.23428345 C86.76815353 6.22568298 85.93825409 6.21708252 85.08320618 6.20822144 C84.17612411 6.20396149 83.26904205 6.19970154 82.33447266 6.1953125 C81.37646255 6.18713501 80.41845245 6.17895752 79.43141174 6.17053223 C76.25766628 6.14569658 73.08396541 6.12916885 69.91015625 6.11474609 C68.82692455 6.10942242 67.74369286 6.10409874 66.62763596 6.09861374 C60.89662127 6.07189301 55.16562832 6.05251267 49.43457031 6.03808594 C43.51039397 6.02142016 37.58677198 5.97662274 31.66280556 5.92571449 C27.11092474 5.89209523 22.55917655 5.88051446 18.00718307 5.87485886 C15.82306037 5.86813414 13.63894676 5.8528806 11.45494461 5.82896805 C8.40000092 5.79742192 5.34656706 5.79726387 2.29150391 5.8046875 C1.38847031 5.78828217 0.48543671 5.77187683 -0.44496155 5.75497437 C-6.15152649 5.81178793 -8.64202527 6.65751309 -12.31640625 11.38818359 Z " fill="#74BF2C" transform="translate(21.31640625,13.61181640625)"/>
<path d="M0 0 C1.02511688 -0.00525696 2.05023376 -0.01051392 3.10641479 -0.01593018 C6.48646392 -0.02910671 9.86604003 -0.02040011 13.24609375 -0.01025391 C15.59969167 -0.01227531 17.95328898 -0.0151873 20.30688477 -0.01895142 C25.23622611 -0.0233716 30.16540421 -0.01695335 35.09472656 -0.00292969 C41.40982558 0.01416179 47.72454208 0.00431901 54.03962708 -0.01364708 C58.89867021 -0.02449302 63.75762282 -0.0210348 68.6166687 -0.0132637 C70.94505865 -0.01126395 73.27345684 -0.01371306 75.60183716 -0.02070236 C78.8571751 -0.02832993 82.11189549 -0.01669364 85.3671875 0 C86.32736786 -0.00607269 87.28754822 -0.01214539 88.27682495 -0.0184021 C93.47653924 0.03093941 97.22629603 0.39911992 101.68359375 3.38818359 C103.97373028 6.82338839 103.86202348 8.37351459 103.68359375 12.38818359 C103.02359375 12.71818359 102.36359375 13.04818359 101.68359375 13.38818359 C101.25046875 12.43943359 100.81734375 11.49068359 100.37109375 10.51318359 C98.89057174 7.18776423 98.89057174 7.18776423 95.68359375 5.38818359 C94.02809844 5.00318468 92.36135045 4.66025225 90.68359375 4.38818359 C90.68359375 5.04818359 90.68359375 5.70818359 90.68359375 6.38818359 C59.00359375 6.38818359 27.32359375 6.38818359 -5.31640625 6.38818359 C-5.31640625 5.72818359 -5.31640625 5.06818359 -5.31640625 4.38818359 C-9.93866524 5.26861388 -11.93281647 6.81830026 -14.62890625 10.51318359 C-15.12003906 11.23763672 -15.61117188 11.96208984 -16.1171875 12.70849609 C-16.51292969 13.26279297 -16.90867187 13.81708984 -17.31640625 14.38818359 C-17.64640625 14.38818359 -17.97640625 14.38818359 -18.31640625 14.38818359 C-18.62640625 6.32818359 -18.62640625 6.32818359 -16.31640625 3.38818359 C-10.93480215 -0.10623958 -6.19481217 -0.0391793 0 0 Z " fill="#A6E037" transform="translate(21.31640625,13.61181640625)"/>
<path d="M0 0 C4.62 0 9.24 0 14 0 C14 10.89 14 21.78 14 33 C9.38 33 4.76 33 0 33 C-3.54852333 29.45147667 -3.38357557 28.72151662 -3.3984375 23.90625 C-3.40230469 22.71128906 -3.40617187 21.51632813 -3.41015625 20.28515625 C-3.39855469 19.03605469 -3.38695313 17.78695312 -3.375 16.5 C-3.38660156 15.25089844 -3.39820312 14.00179687 -3.41015625 12.71484375 C-3.40628906 11.51988281 -3.40242188 10.32492188 -3.3984375 9.09375 C-3.39505371 7.99740234 -3.39166992 6.90105469 -3.38818359 5.77148438 C-3 3 -3 3 0 0 Z " fill="#85CB2E" transform="translate(103,48)"/>
<path d="M0 0 C13 0 13 0 16 2 C16.37231445 4.85742188 16.37231445 4.85742188 16.36328125 8.46875 C16.36263672 9.76167969 16.36199219 11.05460937 16.36132812 12.38671875 C16.35302979 13.06138184 16.34473145 13.73604492 16.33618164 14.43115234 C16.3125886 16.49225951 16.31561974 18.5520734 16.32226562 20.61328125 C16.2667724 30.7332276 16.2667724 30.7332276 14 33 C9.38 33 4.76 33 0 33 C0 22.11 0 11.22 0 0 Z " fill="#83CB2B" transform="translate(11,48)"/>
<path d="M0 0 C8.27185792 2.36338798 8.27185792 2.36338798 11.89453125 7.71484375 C13.7450961 11.54021632 13.89545024 14.87480617 13 19 C10.779502 23.35875534 8.10454117 26.33204824 4 29 C2.68 29 1.36 29 0 29 C0 19.43 0 9.86 0 0 Z " fill="#82CB29" transform="translate(66,49)"/>
<path d="M0 0 C0 9.57 0 19.14 0 29 C-6.27518783 27.95413536 -7.2355123 27.66728947 -10.796875 23.09375 C-12.87090622 19.48439697 -13.31346005 16.11871928 -13 12 C-11.45132808 6.75172294 -9.54275781 4.0285052 -5 1 C-3 0 -3 0 0 0 Z " fill="#82CB29" transform="translate(62,49)"/>
<path d="M0 0 C1.02511688 -0.00525696 2.05023376 -0.01051392 3.10641479 -0.01593018 C6.48646392 -0.02910671 9.86604003 -0.02040011 13.24609375 -0.01025391 C15.59969167 -0.01227531 17.95328898 -0.0151873 20.30688477 -0.01895142 C25.23622611 -0.0233716 30.16540421 -0.01695335 35.09472656 -0.00292969 C41.40982558 0.01416179 47.72454208 0.00431901 54.03962708 -0.01364708 C58.89867021 -0.02449302 63.75762282 -0.0210348 68.6166687 -0.0132637 C70.94505865 -0.01126395 73.27345684 -0.01371306 75.60183716 -0.02070236 C78.8571751 -0.02832993 82.11189549 -0.01669364 85.3671875 0 C86.32736786 -0.00607269 87.28754822 -0.01214539 88.27682495 -0.0184021 C93.47653924 0.03093941 97.22629603 0.39911992 101.68359375 3.38818359 C103.97373028 6.82338839 103.86202348 8.37351459 103.68359375 12.38818359 C103.02359375 12.71818359 102.36359375 13.04818359 101.68359375 13.38818359 C101.5134375 12.83388672 101.34328125 12.27958984 101.16796875 11.70849609 C100.925625 10.98404297 100.68328125 10.25958984 100.43359375 9.51318359 C100.2015625 8.79388672 99.96953125 8.07458984 99.73046875 7.33349609 C98.38863895 4.84009594 97.28267014 4.44074662 94.68359375 3.38818359 C92.55469448 3.08873985 92.55469448 3.08873985 90.28797913 3.12748718 C89.41463425 3.12040237 88.54128937 3.11331757 87.64147949 3.10601807 C86.69123901 3.10849548 85.74099854 3.1109729 84.76196289 3.11352539 C83.25157692 3.10585899 83.25157692 3.10585899 81.7106781 3.09803772 C78.37997505 3.08413009 75.04947865 3.08509936 71.71875 3.08740234 C69.40473859 3.08351614 67.0907279 3.07918163 64.77671814 3.07441711 C59.92542204 3.06695244 55.07419871 3.06724806 50.22290039 3.07250977 C44.00406812 3.07830551 37.78553357 3.06137183 31.56675053 3.03816509 C26.78753414 3.02343833 22.00838964 3.02255461 17.22915459 3.02567482 C14.93621671 3.02516111 12.64327487 3.01991399 10.35035896 3.0098629 C7.14491512 2.99753622 3.94005356 3.00426783 0.73461914 3.01586914 C-0.21359711 3.0082254 -1.16181335 3.00058167 -2.13876343 2.9927063 C-6.960669 3.03130903 -10.47643009 3.10664461 -14.31640625 6.38818359 C-14.97988256 8.87219344 -14.97988256 8.87219344 -15.31640625 11.38818359 C-16.87890625 13.20068359 -16.87890625 13.20068359 -18.31640625 14.38818359 C-18.62640625 6.32818359 -18.62640625 6.32818359 -16.31640625 3.38818359 C-10.93480215 -0.10623958 -6.19481217 -0.0391793 0 0 Z " fill="#92DA1A" transform="translate(21.31640625,13.61181640625)"/>
<path d="M0 0 C6.19899892 1.62354734 10.30276822 4.45415234 13.875 9.8125 C15.31740002 13.89930006 15.35443762 16.67586105 15 21 C14.34 21.99 13.68 22.98 13 24 C12.34 24 11.68 24 11 24 C11.05800781 23.28714844 11.11601563 22.57429688 11.17578125 21.83984375 C11.44837695 16.0530265 11.27271263 12.14506752 7.77734375 7.4375 C5.36327263 5.35187531 5.36327263 5.35187531 -1 3 C-1 12.57 -1 22.14 -1 32 C-1.33 32 -1.66 32 -2 32 C-2 22.1 -2 12.2 -2 2 C-1.34 2 -0.68 2 0 2 C0 1.34 0 0.68 0 0 Z " fill="#EAF6DB" transform="translate(67,46)"/>
<path d="M0 0 C0.66 0.33 1.32 0.66 2 1 C1 4 1 4 -1.4375 6.375 C-3.92607784 8.92427486 -4.94781267 10.65213121 -6 14 C-6.66 13.67 -7.32 13.34 -8 13 C-8.33 15.31 -8.66 17.62 -9 20 C-9.33 20 -9.66 20 -10 20 C-10.60760033 13.19487627 -9.33867062 9.30021384 -5 4 C-2.1875 1.5 -2.1875 1.5 0 0 Z " fill="#EBF7DD" transform="translate(56,47)"/>
</svg>
